# xmcd
#
# Track frame offsets: 
#        150
#        12599
#        27420
#        32454
#        43660
#        62159
#        70129
#        83019
#        89993
#        106974
#        120073
#        136467
#        149230
#
# Disc length: 2168 seconds
#
# Revision: 2
# Processed by: cddbd v1.5.2PL0 Copyright (c) Steve Scherf et al.
# Submitted via: ExactAudioCopyFreeDBPlugin 1.0
#
DISCID=b708760d
DTITLE=Emmylou Harris - 1985 - The Ballad Of Sally Rose
DYEAR=1985
DGENRE=Country
TTITLE0=The Ballad Of Sally Rose
TTITLE1=Rhythm Guitar
TTITLE2=I Think I Love Him and You Are My Flower
TTITLE3=Heart To Heart
TTITLE4=Woman Walk The Line
TTITLE5=Bad News
TTITLE6=Timberline
TTITLE7=Long Tall Sally Rose
TTITLE8=White Line
TTITLE9=Diamond In My Crown
TTITLE10=The Sweetheart Of The Rodeo
TTITLE11=K-S-O-S  ((Ring Of Fire and Wildwood Flower and Six Days On The R
TTITLE11=oad))
TTITLE12=Sweet Chariot
EXTD=(c)1985 Warner Bros - WEA\nupc 07599252052\nWritten and Produced 
EXTD=by Emmylou Harris and Paul Kennerley\n\n
EXTT0=
EXTT1=
EXTT2=
EXTT3=
EXTT4=
EXTT5=
EXTT6=
EXTT7=
EXTT8=
EXTT9=
EXTT10=
EXTT11=
EXTT12=
PLAYORDER=
